
<svg width="240" height="240px" id="Capa_1" data-name="Capa 1" xmlns="http://www.w3.org/2000/svg" viewBox="0 0 240 240"><defs><style>.cls-1{fill:#d9d9d9;}.cls-2{fill:#f1f0f0;}</style></defs><path class="cls-1" d="M8.4,0H231.6c4.64,0,8.4,6.27,8.4,14V226c0,7.73-3.76,14-8.4,14H8.4C3.76,240,0,233.73,0,226V14C0,6.27,3.76,0,8.4,0Z"/><path class="cls-2" d="M162.69,65.61H77.31A12.19,12.19,0,0,0,65.12,77.8v85.37a12.19,12.19,0,0,0,12.19,12.19h85.38a12.19,12.19,0,0,0,12.19-12.19V77.8A12.19,12.19,0,0,0,162.69,65.61ZM77.31,163.17V77.8h85.38v85.37Z"/><path class="cls-2" d="M107.8,132.68l-6.09-6.13L83.41,151h73.18L126.1,108.29Z"/></svg>