<svg width="40px" height="40px" viewBox="0 0 40 40" fill="none" xmlns="http://www.w3.org/2000/svg">
<path d="M20 30.8333C20.9205 30.8333 21.6667 30.0872 21.6667 29.1667V17.5C21.6667 16.5795 20.9205 15.8333 20 15.8333C19.0795 15.8333 18.3333 16.5795 18.3333 17.5V29.1667C18.3333 30.0872 19.0795 30.8333 20 30.8333Z" fill="#5D35B2"/>
<path d="M20 14.1667C21.3807 14.1667 22.5 13.0474 22.5 11.6667C22.5 10.286 21.3807 9.16667 20 9.16667C18.6193 9.16667 17.5 10.286 17.5 11.6667C17.5 13.0474 18.6193 14.1667 20 14.1667Z" fill="#5D35B2"/>
<path fill-rule="evenodd" clip-rule="evenodd" d="M1.66667 20C1.66667 30.1252 9.87479 38.3333 20 38.3333C30.1252 38.3333 38.3333 30.1252 38.3333 20C38.3333 9.87479 30.1252 1.66667 20 1.66667C9.87479 1.66667 1.66667 9.87479 1.66667 20ZM20 35C11.7157 35 5 28.2843 5 20C5 11.7157 11.7157 5 20 5C28.2843 5 35 11.7157 35 20C35 28.2843 28.2843 35 20 35Z" fill="#5D35B2"/>
</svg>
