<svg width="29" height="28" viewBox="0 0 29 28" fill="none" xmlns="http://www.w3.org/2000/svg">
<path d="M23.74 10.5768C23.6472 10.3654 23.5113 10.1744 23.3402 10.0154C23.1692 9.85634 22.9667 9.73252 22.7449 9.6514C22.5388 9.57832 22.3209 9.54133 22.1014 9.54216C21.1595 9.54216 20.2009 10.2458 19.7166 11.2933C19.1163 12.5785 19.4645 13.8637 20.5226 14.2557C20.7355 14.3299 20.9597 14.369 21.186 14.3713C21.7036 14.3426 22.2034 14.1778 22.6317 13.8948C23.06 13.6118 23.4007 13.2212 23.6172 12.7648C23.7986 12.43 23.9034 12.0613 23.9246 11.6837C23.9457 11.3062 23.8828 10.9286 23.74 10.5768ZM10.0779 11.29C9.61352 10.2265 8.63505 9.53573 7.69307 9.53573C7.47368 9.53596 7.25599 9.57292 7.0496 9.64498C6.82826 9.72775 6.62621 9.85253 6.45534 10.012C6.28446 10.1714 6.1482 10.3624 6.05455 10.5735C5.90679 10.9236 5.84059 11.3009 5.86066 11.6785C5.88072 12.0562 5.98656 12.4249 6.17064 12.7584C6.38776 13.2143 6.72861 13.6046 7.1568 13.8875C7.58499 14.1705 8.08445 14.3355 8.60188 14.3649C8.82865 14.3649 9.05349 14.3246 9.26525 14.246C10.33 13.8637 10.6782 12.5913 10.0779 11.29ZM12.1741 11.1455C12.2614 11.1502 12.3489 11.1502 12.4362 11.1455C12.9393 11.1062 13.4106 10.8916 13.7629 10.5414C14.3467 9.96949 14.5059 9.07306 14.3831 8.1477C14.1974 6.73076 13.2621 5.66403 12.0016 5.61905C12.0016 5.61905 11.8225 5.61905 11.733 5.61905C11.1789 5.662 10.6606 5.90104 10.2769 6.29057C9.98467 6.58948 9.76582 6.94839 9.63661 7.34058C9.5074 7.73276 9.47116 8.14813 9.5306 8.55576C9.72298 9.96306 10.8772 11.1005 12.1741 11.1455ZM14.8906 13.0251C11.8789 13.0251 8.8606 17.1153 8.8606 20.4504C8.84945 20.8569 8.93592 21.2603 9.11321 21.6288C9.29049 21.9974 9.55374 22.321 9.88218 22.5742C10.4565 22.9828 11.1613 23.182 11.8723 23.1365C12.2956 23.1585 12.7172 23.0697 13.0929 22.8794C13.6211 22.5956 14.2137 22.4433 14.8176 22.436H14.9702C15.5768 22.441 16.1727 22.5912 16.7049 22.873C17.0817 23.0602 17.5025 23.1488 17.9255 23.1301C18.6367 23.1767 19.3419 22.9774 19.9156 22.5678C20.2435 22.3141 20.5063 21.9904 20.6836 21.6219C20.8608 21.2535 20.9476 20.8503 20.9372 20.444C20.924 17.1088 17.9056 13.0251 14.8906 13.0251ZM17.3517 11.1326C17.439 11.1374 17.5265 11.1374 17.6137 11.1326C18.9106 11.0844 20.0715 9.95343 20.2672 8.54291C20.3271 8.13503 20.2914 7.71931 20.1628 7.32662C20.0342 6.93392 19.8159 6.57433 19.5243 6.27451C19.1426 5.89569 18.63 5.66683 18.0847 5.6319C17.9952 5.6319 17.7929 5.6319 17.7929 5.6319C16.5358 5.6801 15.6037 6.73076 15.4114 8.15413C15.2886 9.07948 15.4512 9.97913 16.0316 10.5478C16.3872 10.8867 16.8545 11.0937 17.3517 11.1326Z" fill="#212121" stroke="#212121" stroke-miterlimit="10"/>
<path d="M14.8929 26.9524C22.0528 26.9524 27.8571 21.324 27.8571 14.381C27.8571 7.43794 22.0528 1.80952 14.8929 1.80952C7.73288 1.80952 1.92857 7.43794 1.92857 14.381C1.92857 21.324 7.73288 26.9524 14.8929 26.9524Z" stroke="#212121" stroke-width="2" stroke-miterlimit="10"/>
</svg>
