<svg id="Capa_1" data-name="Capa 1" xmlns="http://www.w3.org/2000/svg" viewBox="0 0 192.07 192.07"><path d="M96,187.57A91.54,91.54,0,1,0,4.5,96,91.53,91.53,0,0,0,96,187.57Z" style="fill:none;stroke:#fff;stroke-miterlimit:10;stroke-width:9px"/><path d="M121.81,62.67l-28,28.2-5.16-5.16h0a15.5,15.5,0,0,0-21.92,0l0,0L48.87,103.37a15.52,15.52,0,0,0-4.55,11V132.2a15.5,15.5,0,0,0,15.5,15.5H77.64a15.52,15.52,0,0,0,11-4.55l17.66-17.72a15.5,15.5,0,0,0,0-21.92l0,0-5.16-5.17,28.2-28.1m-48,65.66a5.16,5.16,0,0,1-3.67,1.49H59.82a5.17,5.17,0,0,1-5.17-5.16V114.38a5.22,5.22,0,0,1,1.5-3.67L73.92,92.94a5.18,5.18,0,0,1,7.29,0l5.16,5.16-4.59,4.65a5.15,5.15,0,0,0,3.87,8.79,5.24,5.24,0,0,0,3.62-1.5l4.64-4.6,5.17,5.17a4.9,4.9,0,0,1,.9,7" style="fill:#fff"/><path d="M136,34.39s-11,1.45-13.47,14.46S133.4,67.19,133.4,67.19,149,73.56,156,54" style="fill:none;stroke:#fff;stroke-linecap:round;stroke-miterlimit:10;stroke-width:9px"/></svg>