<svg width="29.5" height="30" id="Capa_1" data-name="Capa 1" xmlns="http://www.w3.org/2000/svg" viewBox="0 0 192.07 192.07"><path d="M165.57,62.12H98.66a8.77,8.77,0,0,1,0,6.06h63.77v10.1H99.72c0,2-.08,4-.12,6.06h46.17L123.4,146.16h-32v6.06h34.31a3.17,3.17,0,0,0,3-2L152.5,84.34c2.81-.85,16.5,2.43,16.26-3V65.15A3.12,3.12,0,0,0,165.57,62.12Z" style="fill:#212121"/><path d="M68.68,146.16,46.3,84.34H100c0-2-.09-4-.13-6.06H29.68V68.18H99.8a8.71,8.71,0,0,1,0-6.06H26.5a3.11,3.11,0,0,0-3.18,3V81.31c-.29,5.44,13.5,2.2,16.25,3l23.82,65.84a3.2,3.2,0,0,0,3,2h34.3v-6.06Z" style="fill:#212121"/><path d="M130.61,95.43a3,3,0,0,0-3.89,1.82L113.79,132.8a3,3,0,0,0,5.7,2.08l12.93-35.56A3,3,0,0,0,130.61,95.43Z" style="fill:#212121"/><path d="M59.8,99.32l12.93,35.56a3,3,0,1,0,5.69-2.08L65.49,97.25a3,3,0,1,0-5.69,2.07Z" style="fill:#212121"/><path d="M95.83,93a3,3,0,0,0-3,3.07l.48,37.83a3,3,0,0,0,3.06,3,3.07,3.07,0,0,0,3-3.07L98.9,96A3,3,0,0,0,95.83,93Z" style="fill:#212121"/><path d="M96,187.57A91.54,91.54,0,1,0,4.5,96,91.53,91.53,0,0,0,96,187.57Z" style="fill:none;stroke:#212121;stroke-miterlimit:9;stroke-width:14px"/></svg>